# xmcd
#
# Track frame offsets: 
#        150
#        16201
#        30851
#        46514
#        63704
#        78893
#        94447
#        109158
#        124536
#        141387
#
# Disc length: 2097 seconds
#
# Revision: 0
# Processed by: cddbd v1.5.2PL0 Copyright (c) Steve Scherf et al.
# Submitted via: ExactAudioCopy v0.95b4
#
DISCID=78082f0a
DTITLE=ชล อภิชาติ - หัวใจพี่ส่ง EMS
DYEAR=2006
DGENRE=Country
TTITLE0=หัวใจพี่ส่ง EMS
TTITLE1=ป้ายแดงแย่งรัก
TTITLE2=บุหงาบ้านพอน
TTITLE3=ร้อยตรียังตรม
TTITLE4=รักคุณหมอ
TTITLE5=ตามคำขอ
TTITLE6=เย็นนี้เจอกัน
TTITLE7=ช่างไฟเปิดใจรอ
TTITLE8=กดกริ่งถามข่าว
TTITLE9=บอดี้การ์ดหัวใจ
EXTD=
EXTT0=
EXTT1=
EXTT2=
EXTT3=
EXTT4=
EXTT5=
EXTT6=
EXTT7=
EXTT8=
EXTT9=
PLAYORDER=
